{"title":"Collapse (2009) Webrip x264 [AClass].mp4","uid":11888824,"size":1442399650,"categoryP":"video","categoryS":"hd___movies","magnet":"?xt=urn:btih:f8f559fc84186ac734d43315e483f84af47c8b21&amp;dn=Collapse+%282009%29+Webrip+x264+%5BAClass%5D.mp4&amp;tr=udp%3A%2F%2Ftracker.openbittorrent.com%3A80&amp;tr=udp%3A%2F%2Fopen.demonii.com%3A1337&amp;tr=udp%3A%2F%2Ftracker.coppersurfer.tk%3A6969&amp;tr=udp%3A%2F%2Fexodus.desync.com%3A6969","seeders":4,"leechers":1,"uploader":"akula941","files":1,"time":1430927219,"description":"Meet Michael Ruppert, a different kind of American. A former Los Angeles police officer turned independent reporter, he predicted the current financial crisis in his self-published newsletter, From the Wilderness, at a time when most Wall Street and Washington analysts were still in denial. Director Chris Smith has shown an affinity for outsiders in films like American Movie and The Yes Men. In Collapse, he departs stylistically from his past documentaries by interviewing Ruppert in a format that recalls the work of Errol Morris and Spalding Gray.\n\n\nFormat : MPEG-4\nFormat profile : Base Media\nCodec ID : isom\nFile size : 1.34 GiB\nDuration : 1h 20mn\nOverall bit rate mode : Variable\nOverall bit rate : 2 382 Kbps\nWriting application : Lavf54.63.104\n\nVideo\nID : 1\nFormat : AVC\nFormat/Info : Advanced Video Codec\nFormat profile : &lt;a class=&quot;__cf_email__&quot; href=&quot;/cdn-cgi/l/email-protection&quot; data-cfemail=&quot;afe7c6c8c7efe39b819d&quot;&gt;[email&amp;#160;protected]&lt;/a&gt;&lt;script cf-hash='f9e31' type=&quot;text/javascript&quot;&gt;\n/* &lt;![CDATA[ */!function(){try{var t=&quot;currentScript&quot;in document?document.currentScript:function(){for(var t=document.getElementsByTagName(&quot;script&quot;),e=t.length;e--;)if(t[e].getAttribute(&quot;cf-hash&quot;))return t[e]}();if(t&amp;&amp;t.previousSibling){var e,r,n,i,c=t.previousSibling,a=c.getAttribute(&quot;data-cfemail&quot;);if(a){for(e=&quot;&quot;,r=parseInt(a.substr(0,2),16),n=2;a.length-n;n+=2)i=parseInt(a.substr(n,2),16)^r,e+=String.fromCharCode(i);e=document.createTextNode(e),c.parentNode.replaceChild(e,c)}}}catch(u){}}();/* ]]&gt; */&lt;/script&gt;\nFormat settings, CABAC : Yes\nFormat settings, ReFrames : 4 frames\nCodec ID : avc1\nCodec ID/Info : Advanced Video Coding\nDuration : 1h 20mn\nBit rate : 2 249 Kbps\nNominal bit rate : 4 500 Kbps\nWidth : 1 920 pixels\nHeight : 1 080 pixels\nDisplay aspect ratio : 16:9\nFrame rate mode : Variable\nFrame rate : 29.970 fps\nOriginal frame rate : 59.940 fps\nMinimum frame rate : 1.362 fps\nMaximum frame rate : 59.941 fps\nColor space : YUV\nChroma subsampling : 4:2:0\nBit depth : 8 bits\nScan type : Progressive\nBits/(Pixel*Frame) : 0.036\nStream size : 1.27 GiB (94%)\nWriting library : x264 core 123 r2189 35cf912\n\nAudio\nID : 2\nFormat : AAC\nFormat/Info : Advanced Audio Codec\nFormat profile : LC\nCodec ID : 40\nDuration : 1h 20mn\nBit rate mode : Variable\nBit rate : 123 Kbps\nMaximum bit rate : 128 Kbps\nChannel(s) : 2 channels\nChannel positions : Front: L R\nSampling rate : 48.0 KHz\nCompression mode : Lossy\nStream size : 71.2 MiB (5%)\nLanguage : English","torrent":{"xt":"urn:btih:f8f559fc84186ac734d43315e483f84af47c8b21","amp;dn":"Collapse+%282009%29+Webrip+x264+%5BAClass%5D.mp4","amp;tr":["udp%3A%2F%2Ftracker.openbittorrent.com%3A80","udp%3A%2F%2Fopen.demonii.com%3A1337","udp%3A%2F%2Ftracker.coppersurfer.tk%3A6969","udp%3A%2F%2Fexodus.desync.com%3A6969"],"infoHash":"f8f559fc84186ac734d43315e483f84af47c8b21","infoHashBuffer":{"type":"Buffer","data":[248,245,89,252,132,24,106,199,52,212,51,21,228,131,248,74,244,124,139,33]},"announce":[],"urlList":[]}}